<svg xmlns="http://www.w3.org/2000/svg" height="48" viewBox="0 -960 960 960" width="48"><path d="M194.694-16.002q-28.254 0-49.473-21.219-21.22-21.219-21.22-49.473v-570.612q0-28.254 21.22-49.473 21.219-21.22 49.473-21.22H581.23l-58.384 58.384H194.694q-4.616 0-8.463 3.846-3.846 3.847-3.846 8.463v570.612q0 4.616 3.846 8.463 3.847 3.846 8.463 3.846h570.612q4.616 0 8.463-3.846 3.846-3.847 3.846-8.463v-330.383l58.384-58.384v388.767q0 28.254-21.22 49.473Q793.56-16 765.306-16H194.694ZM480-372Zm184.385-335.306L706-665.307 432.385-393.692v69.307h68.307l275-273.23 39.614 40.23-290.384 291.384H374.001v-150.921l290.384-290.384Zm151.082 149.921L664.385-707.306l90.538-91.538q19.879-20.231 49.212-19.539 29.333.693 51.326 20.923l50.383 50.614q20.616 22.667 20.616 51.152 0 28.484-21.616 49.155l-89.377 89.154Z"/></svg>