<svg id="visual" viewBox="0 0 900 600" width="900" height="600" xmlns="http://www.w3.org/2000/svg" xmlns:xlink="http://www.w3.org/1999/xlink" version="1.1"><path d="M0 37L37.5 52C75 67 150 97 225 99C300 101 375 75 450 63C525 51 600 53 675 68C750 83 825 111 862.5 125L900 139L900 0L862.5 0C825 0 750 0 675 0C600 0 525 0 450 0C375 0 300 0 225 0C150 0 75 0 37.5 0L0 0Z" fill="#45b8ff"></path><path d="M0 67L37.5 86C75 105 150 143 225 144C300 145 375 109 450 90C525 71 600 69 675 86C750 103 825 139 862.5 157L900 175L900 137L862.5 123C825 109 750 81 675 66C600 51 525 49 450 61C375 73 300 99 225 97C150 95 75 65 37.5 50L0 35Z" fill="#3eb3ff"></path><path d="M0 139L37.5 149C75 159 150 179 225 174C300 169 375 139 450 125C525 111 600 113 675 127C750 141 825 167 862.5 180L900 193L900 173L862.5 155C825 137 750 101 675 84C600 67 525 69 450 88C375 107 300 143 225 142C150 141 75 103 37.5 84L0 65Z" fill="#39aeff"></path><path d="M0 169L37.5 182C75 195 150 221 225 215C300 209 375 171 450 158C525 145 600 157 675 176C750 195 825 221 862.5 234L900 247L900 191L862.5 178C825 165 750 139 675 125C600 111 525 109 450 123C375 137 300 167 225 172C150 177 75 157 37.5 147L0 137Z" fill="#35a9ff"></path><path d="M0 421L37.5 407C75 393 150 365 225 352C300 339 375 341 450 345C525 349 600 355 675 371C750 387 825 413 862.5 426L900 439L900 245L862.5 232C825 219 750 193 675 174C600 155 525 143 450 156C375 169 300 207 225 213C150 219 75 193 37.5 180L0 167Z" fill="#34a3ff"></path><path d="M0 457L37.5 441C75 425 150 393 225 374C300 355 375 349 450 365C525 381 600 419 675 435C750 451 825 445 862.5 442L900 439L900 437L862.5 424C825 411 750 385 675 369C600 353 525 347 450 343C375 339 300 337 225 350C150 363 75 391 37.5 405L0 419Z" fill="#359eff"></path><path d="M0 499L37.5 479C75 459 150 419 225 400C300 381 375 383 450 398C525 413 600 441 675 460C750 479 825 489 862.5 494L900 499L900 437L862.5 440C825 443 750 449 675 433C600 417 525 379 450 363C375 347 300 353 225 372C150 391 75 423 37.5 439L0 455Z" fill="#3998ff"></path><path d="M0 511L37.5 493C75 475 150 439 225 426C300 413 375 423 450 434C525 445 600 457 675 468C750 479 825 489 862.5 494L900 499L900 497L862.5 492C825 487 750 477 675 458C600 439 525 411 450 396C375 381 300 379 225 398C150 417 75 457 37.5 477L0 497Z" fill="#4092ff"></path><path d="M0 559L37.5 550C75 541 150 523 225 512C300 501 375 497 450 498C525 499 600 505 675 507C750 509 825 507 862.5 506L900 505L900 497L862.5 492C825 487 750 477 675 466C600 455 525 443 450 432C375 421 300 411 225 424C150 437 75 473 37.5 491L0 509Z" fill="#498cff"></path><path d="M0 565L37.5 560C75 555 150 545 225 538C300 531 375 527 450 528C525 529 600 535 675 541C750 547 825 553 862.5 556L900 559L900 503L862.5 504C825 505 750 507 675 505C600 503 525 497 450 496C375 495 300 499 225 510C150 521 75 539 37.5 548L0 557Z" fill="#5485ff"></path><path d="M0 601L37.5 601C75 601 150 601 225 596C300 591 375 581 450 576C525 571 600 571 675 572C750 573 825 575 862.5 576L900 577L900 557L862.5 554C825 551 750 545 675 539C600 533 525 527 450 526C375 525 300 529 225 536C150 543 75 553 37.5 558L0 563Z" fill="#607eff"></path><path d="M0 601L37.5 601C75 601 150 601 225 601C300 601 375 601 450 601C525 601 600 601 675 601C750 601 825 601 862.5 601L900 601L900 575L862.5 574C825 573 750 571 675 570C600 569 525 569 450 574C375 579 300 589 225 594C150 599 75 599 37.5 599L0 599Z" fill="#6c76ff"></path></svg>