<svg id="visual" viewBox="0 0 900 600" width="900" height="600" xmlns="http://www.w3.org/2000/svg" xmlns:xlink="http://www.w3.org/1999/xlink" version="1.1"><path d="M0 61L37.5 55C75 49 150 37 225 33C300 29 375 33 450 34C525 35 600 33 675 37C750 41 825 51 862.5 56L900 61L900 0L862.5 0C825 0 750 0 675 0C600 0 525 0 450 0C375 0 300 0 225 0C150 0 75 0 37.5 0L0 0Z" fill="#45b8ff"></path><path d="M0 91L37.5 87C75 83 150 75 225 81C300 87 375 107 450 117C525 127 600 127 675 119C750 111 825 95 862.5 87L900 79L900 59L862.5 54C825 49 750 39 675 35C600 31 525 33 450 32C375 31 300 27 225 31C150 35 75 47 37.5 53L0 59Z" fill="#3eb3ff"></path><path d="M0 97L37.5 99C75 101 150 105 225 110C300 115 375 121 450 128C525 135 600 143 675 140C750 137 825 123 862.5 116L900 109L900 77L862.5 85C825 93 750 109 675 117C600 125 525 125 450 115C375 105 300 85 225 79C150 73 75 81 37.5 85L0 89Z" fill="#39aeff"></path><path d="M0 97L37.5 108C75 119 150 141 225 155C300 169 375 175 450 175C525 175 600 169 675 159C750 149 825 135 862.5 128L900 121L900 107L862.5 114C825 121 750 135 675 138C600 141 525 133 450 126C375 119 300 113 225 108C150 103 75 99 37.5 97L0 95Z" fill="#35a9ff"></path><path d="M0 157L37.5 167C75 177 150 197 225 203C300 209 375 201 450 200C525 199 600 205 675 197C750 189 825 167 862.5 156L900 145L900 119L862.5 126C825 133 750 147 675 157C600 167 525 173 450 173C375 173 300 167 225 153C150 139 75 117 37.5 106L0 95Z" fill="#34a3ff"></path><path d="M0 295L37.5 296C75 297 150 299 225 282C300 265 375 229 450 221C525 213 600 233 675 229C750 225 825 197 862.5 183L900 169L900 143L862.5 154C825 165 750 187 675 195C600 203 525 197 450 198C375 199 300 207 225 201C150 195 75 175 37.5 165L0 155Z" fill="#359eff"></path><path d="M0 385L37.5 378C75 371 150 357 225 328C300 299 375 255 450 248C525 241 600 271 675 276C750 281 825 261 862.5 251L900 241L900 167L862.5 181C825 195 750 223 675 227C600 231 525 211 450 219C375 227 300 263 225 280C150 297 75 295 37.5 294L0 293Z" fill="#3998ff"></path><path d="M0 385L37.5 379C75 373 150 361 225 332C300 303 375 257 450 249C525 241 600 271 675 279C750 287 825 273 862.5 266L900 259L900 239L862.5 249C825 259 750 279 675 274C600 269 525 239 450 246C375 253 300 297 225 326C150 355 75 369 37.5 376L0 383Z" fill="#4092ff"></path><path d="M0 403L37.5 395C75 387 150 371 225 346C300 321 375 287 450 282C525 277 600 301 675 308C750 315 825 305 862.5 300L900 295L900 257L862.5 264C825 271 750 285 675 277C600 269 525 239 450 247C375 255 300 301 225 330C150 359 75 371 37.5 377L0 383Z" fill="#498cff"></path><path d="M0 541L37.5 531C75 521 150 501 225 478C300 455 375 429 450 439C525 449 600 495 675 498C750 501 825 461 862.5 441L900 421L900 293L862.5 298C825 303 750 313 675 306C600 299 525 275 450 280C375 285 300 319 225 344C150 369 75 385 37.5 393L0 401Z" fill="#5485ff"></path><path d="M0 571L37.5 563C75 555 150 539 225 517C300 495 375 467 450 475C525 483 600 527 675 532C750 537 825 503 862.5 486L900 469L900 419L862.5 439C825 459 750 499 675 496C600 493 525 447 450 437C375 427 300 453 225 476C150 499 75 519 37.5 529L0 539Z" fill="#607eff"></path><path d="M0 601L37.5 601C75 601 150 601 225 601C300 601 375 601 450 601C525 601 600 601 675 601C750 601 825 601 862.5 601L900 601L900 467L862.5 484C825 501 750 535 675 530C600 525 525 481 450 473C375 465 300 493 225 515C150 537 75 553 37.5 561L0 569Z" fill="#6c76ff"></path></svg>