<?xml version="1.0" encoding="UTF-8" standalone="no"?>
<svg
   height="48"
   viewBox="0 -960 960 960"
   width="48"
   version="1.1"
   id="svg1"
   sodipodi:docname="status-overdue.svg"
   inkscape:version="1.3 (1:1.3+202307231459+0e150ed6c4)"
   xmlns:inkscape="http://www.inkscape.org/namespaces/inkscape"
   xmlns:sodipodi="http://sodipodi.sourceforge.net/DTD/sodipodi-0.dtd"
   xmlns="http://www.w3.org/2000/svg"
   xmlns:svg="http://www.w3.org/2000/svg">
  <defs
     id="defs1" />
  <sodipodi:namedview
     id="namedview1"
     pagecolor="#ffffff"
     bordercolor="#000000"
     borderopacity="0.25"
     inkscape:showpageshadow="2"
     inkscape:pageopacity="0.0"
     inkscape:pagecheckerboard="0"
     inkscape:deskcolor="#d1d1d1"
     inkscape:zoom="7.0121422"
     inkscape:cx="13.833148"
     inkscape:cy="10.553123"
     inkscape:window-width="1366"
     inkscape:window-height="673"
     inkscape:window-x="0"
     inkscape:window-y="0"
     inkscape:window-maximized="1"
     inkscape:current-layer="svg1" />
  <path
     d="m 479.911,-120 c -19.274,0 -35.74433,-6.863 -49.411,-20.589 -13.66667,-13.72533 -20.5,-30.22533 -20.5,-49.5 0,-19.274 6.863,-35.74433 20.589,-49.411 13.72533,-13.66667 30.22533,-20.5 49.5,-20.5 19.274,0 35.74433,6.863 49.411,20.589 13.66667,13.72533 20.5,30.22533 20.5,49.5 0,19.274 -6.863,35.74433 -20.589,49.411 -13.72533,13.66667 -30.22533,20.5 -49.5,20.5 z m 10.06202,-289.98233 3.73705,-21.93404 10.44534,9.43775 10.92453,27.33673 z"
     id="path1"
     style="fill:#ff6600;fill-opacity:1;stroke-width:5;stroke-dasharray:none;stroke:#000000;stroke-opacity:1"
     sodipodi:nodetypes="scscscscsccccc" />
  <rect
     style="opacity:1;fill:#ff6600;fill-opacity:1;stroke:#060000;stroke-width:5;stroke-dasharray:none;stroke-opacity:1"
     id="rect1"
     width="139.16409"
     height="478.97354"
     x="409.52954"
     y="-839.63293"
     rx="25.186867"
     ry="20.997892" />
</svg>
